# xmcd CD database file
#
# Track frame offsets:
#	150
#	27297
#	58039
#	82847
#	112557
#	163257
#
# Disc length: 2451 seconds
#
# Revision: 0
# Processed by: cddbd v1.4PL0 Copyright (c) Steve Scherf et al.
# Submitted via: CDex 1.50beta8
#
DISCID=3b099106
DTITLE=Franco D'Andrea Trio - Chromatic phrygian
DYEAR=1996
DGENRE=Jazz
TTITLE0=This can't be love
TTITLE1=Chromatic phrygian
TTITLE2=Margaux scene
TTITLE3=Good morning, Mr. Night
TTITLE4=Afro waltz
TTITLE5=Tina
EXTD=YEAR: 1996
EXTT0=
EXTT1=
EXTT2=
EXTT3=
EXTT4=
EXTT5=
PLAYORDER=
